<?xml version="1.0" encoding="UTF-8"?>
<svg width="700pt" height="700pt" version="1.1" viewBox="0 0 700 700" xmlns="http://www.w3.org/2000/svg" xmlns:xlink="http://www.w3.org/1999/xlink">
 <defs>
  <symbol id="d" overflow="visible">
   <path d="m29.312-1.75c-1.5117 0.78125-3.0898 1.3711-4.7344 1.7656-1.6367 0.40625-3.3398 0.60938-5.1094 0.60938-5.3125 0-9.5273-1.4844-12.641-4.4531-3.1055-2.9688-4.6562-7-4.6562-12.094s1.5508-9.125 4.6562-12.094c3.1133-2.9688 7.3281-4.4531 12.641-4.4531 1.7695 0 3.4727 0.19922 5.1094 0.59375 1.6445 0.39844 3.2227 0.99219 4.7344 1.7812v6.5938c-1.5312-1.0391-3.0391-1.8008-4.5156-2.2812-1.4805-0.48828-3.0391-0.73438-4.6719-0.73438-2.9375 0-5.2461 0.94531-6.9219 2.8281-1.6797 1.875-2.5156 4.4648-2.5156 7.7656 0 3.293 0.83594 5.8828 2.5156 7.7656 1.6758 1.875 3.9844 2.8125 6.9219 2.8125 1.6328 0 3.1914-0.23828 4.6719-0.71875 1.4766-0.48828 2.9844-1.2539 4.5156-2.2969z"/>
  </symbol>
  <symbol id="i" overflow="visible">
   <path d="m21.453-17.406c-0.67969-0.3125-1.3516-0.53906-2.0156-0.6875-0.65625-0.15625-1.3203-0.23438-1.9844-0.23438-1.9688 0-3.4844 0.63281-4.5469 1.8906-1.0547 1.2617-1.5781 3.0703-1.5781 5.4219v11.016h-7.6562v-23.922h7.6562v3.9219c0.97656-1.5625 2.1016-2.7031 3.375-3.4219 1.2812-0.71875 2.8125-1.0781 4.5938-1.0781 0.25 0 0.52344 0.011719 0.82812 0.03125 0.30078 0.023438 0.73438 0.070312 1.2969 0.14062z"/>
  </symbol>
  <symbol id="c" overflow="visible">
   <path d="m27.562-12.031v2.1875h-17.891c0.1875 1.793 0.83203 3.1367 1.9375 4.0312 1.1133 0.89844 2.6719 1.3438 4.6719 1.3438 1.6016 0 3.25-0.23438 4.9375-0.70312 1.6875-0.47656 3.4219-1.2031 5.2031-2.1719v5.8906c-1.8047 0.6875-3.6094 1.2031-5.4219 1.5469-1.8125 0.35156-3.6211 0.53125-5.4219 0.53125-4.3359 0-7.7031-1.0977-10.109-3.2969-2.3984-2.207-3.5938-5.2969-3.5938-9.2656 0-3.9062 1.1758-6.9727 3.5312-9.2031 2.3633-2.2383 5.6094-3.3594 9.7344-3.3594 3.7578 0 6.7695 1.1367 9.0312 3.4062 2.2578 2.2617 3.3906 5.2812 3.3906 9.0625zm-7.8594-2.5312c0-1.457-0.42969-2.6289-1.2812-3.5156-0.84375-0.89453-1.9492-1.3438-3.3125-1.3438-1.4922 0-2.6992 0.41797-3.625 1.25-0.91797 0.83594-1.4922 2.0391-1.7188 3.6094z"/>
  </symbol>
  <symbol id="b" overflow="visible">
   <path d="m14.391-10.766c-1.5938 0-2.793 0.27344-3.5938 0.8125-0.80469 0.54297-1.2031 1.3398-1.2031 2.3906 0 0.96875 0.32031 1.7305 0.96875 2.2812 0.64453 0.54297 1.5469 0.8125 2.7031 0.8125 1.4375 0 2.6445-0.51562 3.625-1.5469 0.98828-1.0312 1.4844-2.3203 1.4844-3.875v-0.875zm11.688-2.8906v13.656h-7.7031v-3.5469c-1.0312 1.4492-2.1875 2.5078-3.4688 3.1719s-2.8398 1-4.6719 1c-2.4805 0-4.4961-0.72266-6.0469-2.1719-1.543-1.4453-2.3125-3.3203-2.3125-5.625 0-2.8125 0.96094-4.8672 2.8906-6.1719 1.9375-1.3125 4.9688-1.9688 9.0938-1.9688h4.5156v-0.60938c0-1.207-0.48047-2.0938-1.4375-2.6562-0.94922-0.5625-2.4375-0.84375-4.4688-0.84375-1.6367 0-3.1562 0.16797-4.5625 0.5-1.4062 0.32422-2.7188 0.8125-3.9375 1.4688v-5.8281c1.6445-0.40625 3.2891-0.70703 4.9375-0.90625 1.6562-0.20703 3.3047-0.3125 4.9531-0.3125 4.3203 0 7.4375 0.85547 9.3438 2.5625 1.9141 1.6992 2.875 4.4609 2.875 8.2812z"/>
  </symbol>
  <symbol id="a" overflow="visible">
   <path d="m12.031-30.719v6.7969h7.875v5.4688h-7.875v10.141c0 1.1172 0.21875 1.8711 0.65625 2.2656 0.4375 0.38672 1.3125 0.57812 2.625 0.57812h3.9375v5.4688h-6.5625c-3.0234 0-5.1641-0.62891-6.4219-1.8906-1.2617-1.2578-1.8906-3.3984-1.8906-6.4219v-10.141h-3.7969v-5.4688h3.7969v-6.7969z"/>
  </symbol>
  <symbol id="h" overflow="visible">
   <path d="m19.953-20.422v-12.812h7.6875v33.234h-7.6875v-3.4531c-1.0547 1.4062-2.2148 2.4375-3.4844 3.0938-1.2734 0.65625-2.7422 0.98438-4.4062 0.98438-2.9492 0-5.3711-1.1719-7.2656-3.5156-1.8867-2.3438-2.8281-5.3594-2.8281-9.0469s0.94141-6.7031 2.8281-9.0469c1.8945-2.3438 4.3164-3.5156 7.2656-3.5156 1.6562 0 3.1172 0.33594 4.3906 1 1.2812 0.65625 2.4453 1.6836 3.5 3.0781zm-5.0469 15.484c1.6445 0 2.8945-0.59766 3.75-1.7969 0.86328-1.1953 1.2969-2.9297 1.2969-5.2031 0-2.2812-0.43359-4.0195-1.2969-5.2188-0.85547-1.1953-2.1055-1.7969-3.75-1.7969-1.625 0-2.8711 0.60156-3.7344 1.7969-0.85547 1.1992-1.2812 2.9375-1.2812 5.2188 0 2.2734 0.42578 4.0078 1.2812 5.2031 0.86328 1.1992 2.1094 1.7969 3.7344 1.7969z"/>
  </symbol>
  <symbol id="g" overflow="visible">
   <path d="m16.406-4.9375c1.6328 0 2.8828-0.59766 3.75-1.7969 0.86328-1.1953 1.2969-2.9297 1.2969-5.2031 0-2.2812-0.43359-4.0195-1.2969-5.2188-0.86719-1.1953-2.1172-1.7969-3.75-1.7969-1.6367 0-2.8906 0.60547-3.7656 1.8125-0.875 1.1992-1.3125 2.9336-1.3125 5.2031 0 2.2617 0.4375 3.9961 1.3125 5.2031 0.875 1.1992 2.1289 1.7969 3.7656 1.7969zm-5.0781-15.484c1.0508-1.3945 2.2188-2.4219 3.5-3.0781 1.2812-0.66406 2.7539-1 4.4219-1 2.9453 0 5.3672 1.1719 7.2656 3.5156 1.8945 2.3438 2.8438 5.3594 2.8438 9.0469s-0.94922 6.7031-2.8438 9.0469c-1.8984 2.3438-4.3203 3.5156-7.2656 3.5156-1.668 0-3.1406-0.33594-4.4219-1s-2.4492-1.6914-3.5-3.0781v3.4531h-7.6562v-33.234h7.6562z"/>
  </symbol>
  <symbol id="f" overflow="visible">
   <path d="m0.53125-23.922h7.6562l6.4219 16.234 5.4688-16.234h7.6562l-10.062 26.188c-1.0117 2.6641-2.1953 4.5234-3.5469 5.5781-1.3438 1.0625-3.1211 1.5938-5.3281 1.5938h-4.4219v-5.0156h2.3906c1.3008 0 2.2422-0.21094 2.8281-0.625 0.59375-0.40625 1.0547-1.1484 1.3906-2.2188l0.20312-0.65625z"/>
  </symbol>
  <symbol id="e" overflow="visible">
   <path d="m27.734-14.562v14.562h-7.7031v-11.109c0-2.0938-0.046875-3.5312-0.14062-4.3125-0.085937-0.78125-0.24219-1.3594-0.46875-1.7344-0.30469-0.5-0.71094-0.88281-1.2188-1.1562-0.51172-0.28125-1.0938-0.42188-1.75-0.42188-1.5938 0-2.8516 0.61719-3.7656 1.8438-0.90625 1.2305-1.3594 2.9375-1.3594 5.125v11.766h-7.6562v-33.234h7.6562v12.812c1.1445-1.3945 2.3633-2.4219 3.6562-3.0781 1.3008-0.66406 2.7383-1 4.3125-1 2.7578 0 4.8516 0.85156 6.2812 2.5469 1.4375 1.6875 2.1562 4.1523 2.1562 7.3906z"/>
  </symbol>
  <symbol id="j" overflow="visible">
   <path d="m11.328-3.4531v12.547h-7.6562v-33.016h7.6562v3.5c1.0508-1.3945 2.2188-2.4219 3.5-3.0781 1.2812-0.66406 2.7539-1 4.4219-1 2.9453 0 5.3672 1.1719 7.2656 3.5156 1.8945 2.3438 2.8438 5.3594 2.8438 9.0469s-0.94922 6.7031-2.8438 9.0469c-1.8984 2.3438-4.3203 3.5156-7.2656 3.5156-1.668 0-3.1406-0.33594-4.4219-1s-2.4492-1.6914-3.5-3.0781zm5.0781-15.5c-1.6367 0-2.8906 0.60547-3.7656 1.8125-0.875 1.1992-1.3125 2.9336-1.3125 5.2031 0 2.2617 0.4375 3.9961 1.3125 5.2031 0.875 1.1992 2.1289 1.7969 3.7656 1.7969 1.6328 0 2.8828-0.59766 3.75-1.7969 0.86328-1.1953 1.2969-2.9297 1.2969-5.2031 0-2.2812-0.43359-4.0195-1.2969-5.2188-0.86719-1.1953-2.1172-1.7969-3.75-1.7969z"/>
  </symbol>
 </defs>
 <g>
  <path d="m345.84 336.88c0-13.969-5.5508-27.367-15.43-37.246s-23.277-15.43-37.246-15.43-27.367 5.5508-37.246 15.43c-9.8789 9.8789-15.43 23.277-15.43 37.246s5.5508 27.367 15.43 37.246c9.8789 9.8789 23.277 15.43 37.246 15.43 13.965-0.015625 27.355-5.5703 37.23-15.445s15.43-23.266 15.445-37.23zm-87.852 0c0-9.3281 3.707-18.277 10.305-24.871 6.5938-6.5977 15.543-10.305 24.871-10.305s18.277 3.707 24.871 10.305c6.5977 6.5938 10.305 15.543 10.305 24.871s-3.707 18.277-10.305 24.871c-6.5938 6.5977-15.543 10.305-24.871 10.305-9.3281-0.011719-18.27-3.7188-24.863-10.312s-10.301-15.539-10.312-24.863z"/>
  <path d="m105.57 406.88c-3.6406-30.742 6.4922-61.52 27.684-84.086 21.289-21.973 51.199-33.414 81.715-31.258 0.15625 0 1.0234 0.11328 1.1641 0.11328 0.61328 0.085938 1.2148 0.17578 1.8203 0.21875 4.3984 0.35938 8.3711-2.6094 9.2773-6.9297 3.1289-15.297 10.691-29.336 21.742-40.371 0.39453-0.38672 0.74609-0.81641 1.0508-1.2773 11.094-10.27 25.707-15.891 40.828-15.699 19.59 0.30469 38.27 8.3125 52 22.289l37.273 37.273c26.957 26.969 29.75 68.199 6.6133 92.75h0.003907c-0.46875 0.31641-0.90625 0.67578-1.3047 1.0781-8.3242 8.4062-18.449 14.812-29.609 18.742l5.8438 16.484c13.023-4.5781 24.898-11.926 34.809-21.535 0.51953-0.33594 1.0039-0.72656 1.4414-1.1641 29.793-29.75 28.875-79.625-0.9375-113.86l156.78-166.16 7.332-5.7031 5.4062 5.4062c1.6328 1.6875 3.8711 2.6484 6.2188 2.668 2.3477 0.023437 4.6055-0.90234 6.2617-2.5625 1.6602-1.6562 2.5859-3.9141 2.5625-6.2617-0.019531-2.3477-0.98047-4.5859-2.668-6.2188l-3.8594-3.8594 14-10.922 8.5156 8.5156h-0.003906c1.6328 1.6914 3.8711 2.6523 6.2188 2.6719 2.3477 0.019532 4.6055-0.90234 6.2617-2.5625 1.6602-1.6602 2.5859-3.9141 2.5625-6.2617-0.019531-2.3477-0.98047-4.5898-2.668-6.2188l-7-7 6.125-4.7852c1.9883-1.543 3.2227-3.8672 3.375-6.3789 0.15625-2.5117-0.77734-4.9727-2.5625-6.7461l-37.273-37.266c-1.75-1.75-4.168-2.6602-6.6328-2.5039-2.5039 0.15625-4.8203 1.3789-6.3633 3.3594l-4.7852 6.125-7-7c-3.4336-3.3164-8.8906-3.2695-12.266 0.10547s-3.4219 8.8359-0.10547 12.27l8.5234 8.5234-10.91 14-3.8594-3.8672-0.003907-0.003906c-3.418-3.418-8.9609-3.418-12.379 0-3.4219 3.418-3.4219 8.9648 0 12.383l5.418 5.4062-5.6719 7.2891-166.25 156.83c-16.438-14.484-37.527-22.582-59.43-22.832-20.344-0.22656-39.93 7.6914-54.398 21.992-0.42188 0.42578-0.79688 0.89453-1.1211 1.3984-10.977 11.352-19 25.223-23.371 40.398-34.293-1.2812-67.512 12.082-91.367 36.75-24.77 26.266-36.645 62.145-32.438 98zm279.25-139.78-21.875-21.875 159.86-150.86 12.844 12.828zm182.48-227.65 23.258 23.258-42 32.645-13.93-13.922z"/>
  <path d="m193.84 349.33-12.391 12.383v-0.003907c-4.9648 4.9102-7.7617 11.605-7.7617 18.59s2.7969 13.68 7.7617 18.59l22.398 22.398 12.371-12.371-22.434-22.445c-1.6602-1.6211-2.5977-3.8477-2.5977-6.1719s0.9375-4.5508 2.5977-6.1719l6.2383-6.2383 49.551 49.551 12.371-12.371-55.738-55.738h0.003907c-3.418-3.418-8.957-3.418-12.371 0z"/>
  <path d="m612.5 533.75v-96.25c0-2.3203-0.92188-4.5469-2.5625-6.1875s-3.8672-2.5625-6.1875-2.5625h-507.5c-4.832 0-8.75 3.918-8.75 8.75v96.25c0 2.3203 0.92188 4.5469 2.5625 6.1875s3.8672 2.5625 6.1875 2.5625h507.5c2.3203 0 4.5469-0.92188 6.1875-2.5625s2.5625-3.8672 2.5625-6.1875zm-17.5-8.75h-490v-78.75h43.75v43.75h17.5v-43.75h17.5v43.75h17.5v-43.75h43.75v43.75h17.5v-43.75h17.5v43.75h17.5v-43.75h17.5v43.75h17.5v-43.75h43.75v43.75h17.5v-43.75h17.5v43.75h17.5v-43.75h43.75v43.75h17.5v-43.75h17.5v43.75h17.5v-43.75h17.5v43.75h17.5v-43.75h35z"/>
  <path d="m568.75 385v-86.793l29.531 23.625 10.938-13.668-43.75-35v0.003907c-2.625-2.1055-6.2266-2.5156-9.2578-1.0586-3.0352 1.457-4.9609 4.5273-4.9609 7.8906v82.293c-5.5352-2.3516-11.488-3.5586-17.5-3.543-19.625 0-35 11.531-35 26.25s15.375 26.25 35 26.25 35-11.531 35-26.25zm-52.5 0c0-3.5703 6.8164-8.75 17.5-8.75s17.5 5.1797 17.5 8.75-6.8164 8.75-17.5 8.75-17.5-5.1797-17.5-8.75z"/>
  <path d="m227.5 105c-19.625 0-35 11.531-35 26.25s15.375 26.25 35 26.25 35-11.531 35-26.25v-105c0-2.3203-0.92188-4.5469-2.5625-6.1875s-3.8672-2.5625-6.1875-2.5625h-105c-4.832 0-8.75 3.918-8.75 8.75v82.25c-5.5352-2.3398-11.488-3.5312-17.5-3.5-19.625 0-35 11.531-35 26.25s15.375 26.25 35 26.25 35-11.531 35-26.25v-61.25h87.5v38.5c-5.5352-2.3398-11.488-3.5312-17.5-3.5zm0 35c-10.684 0-17.5-5.1797-17.5-8.75s6.8164-8.75 17.5-8.75 17.5 5.1797 17.5 8.75-6.8164 8.75-17.5 8.75zm-105 0c-10.684 0-17.5-5.1797-17.5-8.75s6.8164-8.75 17.5-8.75 17.5 5.1797 17.5 8.75-6.8164 8.75-17.5 8.75zm35-87.5v-17.5h87.5v17.5z"/>
 </g>
</svg>
