<?xml version="1.0" encoding="UTF-8"?>
<svg width="700pt" height="700pt" version="1.1" viewBox="0 0 700 700" xmlns="http://www.w3.org/2000/svg" xmlns:xlink="http://www.w3.org/1999/xlink">
 <defs>
  <symbol id="g" overflow="visible">
   <path d="m39.078-2.3281c-2.0117 1.043-4.1094 1.8281-6.2969 2.3594s-4.4648 0.79688-6.8281 0.79688c-7.0859 0-12.699-1.9766-16.844-5.9375-4.1367-3.957-6.2031-9.3281-6.2031-16.109 0-6.7891 2.0664-12.164 6.2031-16.125 4.1445-3.9688 9.7578-5.9531 16.844-5.9531 2.3633 0 4.6406 0.26562 6.8281 0.79688s4.2852 1.3242 6.2969 2.375v8.7969c-2.0312-1.3828-4.0391-2.3984-6.0156-3.0469-1.9688-0.64453-4.0469-0.96875-6.2344-0.96875-3.9062 0-6.9844 1.2578-9.2344 3.7656-2.2422 2.5-3.3594 5.9531-3.3594 10.359 0 4.3867 1.1172 7.8359 3.3594 10.344 2.25 2.5 5.3281 3.75 9.2344 3.75 2.1875 0 4.2656-0.32031 6.2344-0.96875 1.9766-0.64453 3.9844-1.6602 6.0156-3.0469z"/>
  </symbol>
  <symbol id="f" overflow="visible">
   <path d="m16.031-40.953v9.0625h10.516v7.2812h-10.516v13.531c0 1.4805 0.28906 2.4805 0.875 3 0.59375 0.52344 1.7656 0.78125 3.5156 0.78125h5.2344v7.2969h-8.7344c-4.0312 0-6.8867-0.83594-8.5625-2.5156-1.6797-1.6875-2.5156-4.5391-2.5156-8.5625v-13.531h-5.0781v-7.2812h5.0781v-9.0625z"/>
  </symbol>
  <symbol id="e" overflow="visible">
   <path d="m26.594-27.234v-17.078h10.266v44.312h-10.266v-4.6094c-1.3984 1.875-2.9453 3.25-4.6406 4.125-1.6875 0.875-3.6406 1.3125-5.8594 1.3125-3.9297 0-7.1562-1.5625-9.6875-4.6875-2.5234-3.125-3.7812-7.1445-3.7812-12.062 0-4.9141 1.2578-8.9375 3.7812-12.062 2.5312-3.125 5.7578-4.6875 9.6875-4.6875 2.1953 0 4.1445 0.44531 5.8438 1.3281 1.707 0.88672 3.2578 2.2578 4.6562 4.1094zm-6.7188 20.656c2.1875 0 3.8516-0.79688 5-2.3906 1.1445-1.5938 1.7188-3.9102 1.7188-6.9531 0-3.0391-0.57422-5.3594-1.7188-6.9531-1.1484-1.5938-2.8125-2.3906-5-2.3906-2.168 0-3.8242 0.79688-4.9688 2.3906-1.1484 1.5938-1.7188 3.9141-1.7188 6.9531 0 3.043 0.57031 5.3594 1.7188 6.9531 1.1445 1.5938 2.8008 2.3906 4.9688 2.3906z"/>
  </symbol>
  <symbol id="d" overflow="visible">
   <path d="m21.875-6.5781c2.1758 0 3.8359-0.79688 4.9844-2.3906 1.1562-1.5938 1.7344-3.9102 1.7344-6.9531 0-3.0391-0.57812-5.3594-1.7344-6.9531-1.1484-1.5938-2.8086-2.3906-4.9844-2.3906-2.1875 0-3.8672 0.80469-5.0312 2.4062-1.168 1.6055-1.75 3.918-1.75 6.9375 0 3.0234 0.58203 5.3359 1.75 6.9375 1.1641 1.6055 2.8438 2.4062 5.0312 2.4062zm-6.7812-20.656c1.4062-1.8516 2.9609-3.2227 4.6719-4.1094 1.707-0.88281 3.6719-1.3281 5.8906-1.3281 3.9375 0 7.1641 1.5625 9.6875 4.6875 2.5195 3.125 3.7812 7.1484 3.7812 12.062 0 4.918-1.2617 8.9375-3.7812 12.062-2.5234 3.125-5.75 4.6875-9.6875 4.6875-2.2188 0-4.1836-0.44531-5.8906-1.3281-1.7109-0.88281-3.2656-2.2539-4.6719-4.1094v4.6094h-10.188v-44.312h10.188z"/>
  </symbol>
  <symbol id="c" overflow="visible">
   <path d="m3.2812-42.516h35.734v6.625l-22.812 27.609h23.469v8.2812h-37.047v-6.6406l22.812-27.594h-22.156z"/>
  </symbol>
  <symbol id="b" overflow="visible">
   <path d="m4.9062-44.312h10.188v24.125l11.734-11.703h11.844l-15.578 14.625 16.812 17.266h-12.359l-12.453-13.297v13.297h-10.188z"/>
  </symbol>
  <symbol id="a" overflow="visible">
   <path d="m5.3594-42.516h10.953v42.516h-10.953z"/>
  </symbol>
 </defs>
 <g>
  <path d="m418.37 46.668h-231.7c-6.4375 0.019531-11.648 5.2305-11.668 11.664v443.34c0.019531 6.4336 5.2305 11.645 11.668 11.664h326.67c6.4336-0.019531 11.645-5.2305 11.664-11.664v-348.37c-0.03125-28.273-11.273-55.375-31.266-75.367-19.992-19.992-47.094-31.234-75.367-31.266zm83.301 443.33h-303.33v-420h198.33v68.949c-0.066407 9.4805 3.6289 18.602 10.281 25.359 6.6484 6.7578 15.703 10.602 25.184 10.691h69.535zm-145.31-166.55c2.1758-2.1992 3.3867-5.1758 3.3672-8.2695-0.019531-3.0938-1.2695-6.0547-3.4688-8.2266l-46.668-46.074c-3.3477-3.3086-8.3555-4.2812-12.699-2.4688-4.3398 1.8164-7.168 6.0625-7.1641 10.77v99.406-0.003906c-10.309-4.4961-22.059-4.3164-32.219 0.50391-10.16 4.8164-17.738 13.797-20.781 24.621-3.0391 10.828-1.2461 22.438 4.918 31.844 6.168 9.4023 16.102 15.68 27.242 17.207 11.141 1.5273 22.398-1.8438 30.867-9.2422 8.4688-7.3984 13.32-18.102 13.305-29.348v-107.07l26.801 26.465c2.2031 2.1758 5.1797 3.3828 8.2734 3.3633 3.0938-0.023438 6.0547-1.2734 8.2266-3.4766zm-82.191 96.285c-5.5039-0.082031-10.559-3.0625-13.285-7.8438-2.7305-4.7812-2.7305-10.648 0-15.43 2.7266-4.7812 7.7812-7.7617 13.285-7.8438 5.5039 0.082031 10.559 3.0625 13.285 7.8438 2.7305 4.7812 2.7305 10.648 0 15.43-2.7266 4.7812-7.7812 7.7656-13.285 7.8438zm120.55-162.8h58.336c6.3516 0.125 11.438 5.3125 11.438 11.668 0 6.3555-5.0859 11.543-11.441 11.668h-58.332c-6.3555-0.125-11.441-5.3125-11.441-11.668 0-6.3555 5.0859-11.543 11.441-11.668zm58.332 69.996h-58.332c-6.3516-0.125-11.441-5.3125-11.441-11.668s5.0859-11.543 11.441-11.664h58.336c6.3477 0.12891 11.426 5.3125 11.426 11.664 0 6.3516-5.0781 11.535-11.426 11.668zm0 46.668h-104.99c-6.3555-0.125-11.441-5.3125-11.441-11.668 0-6.3555 5.0859-11.543 11.441-11.668h105c6.3477 0.13281 11.426 5.3164 11.426 11.668 0 6.3477-5.0781 11.535-11.426 11.664zm0 46.668-104.99-0.003906c-6.3555-0.12109-11.441-5.3086-11.441-11.664 0-6.3555 5.0859-11.543 11.441-11.668h105c6.3477 0.13281 11.426 5.3164 11.426 11.664 0 6.3516-5.0781 11.535-11.426 11.668z"/>
 </g>
</svg>
